<svg width="21" height="21" viewBox="0 0 21 21" fill="none" xmlns="http://www.w3.org/2000/svg">
<path fill-rule="evenodd" clip-rule="evenodd" d="M16.5665 8.06943C16.5665 9.11604 16.8431 9.73293 17.4518 10.4438C17.9131 10.9675 18.0606 11.6398 18.0606 12.3692C18.0606 13.0977 17.8212 13.7893 17.3417 14.3508C16.7139 15.0239 15.8285 15.4536 14.9249 15.5283C13.6155 15.6399 12.3053 15.7339 10.9776 15.7339C9.64918 15.7339 8.33976 15.6777 7.03035 15.5283C6.12594 15.4536 5.24057 15.0239 4.61361 14.3508C4.13407 13.7893 3.89389 13.0977 3.89389 12.3692C3.89389 11.6398 4.04214 10.9675 4.50263 10.4438C5.13042 9.73293 5.38882 9.11604 5.38882 8.06943V7.71441C5.38882 6.31277 5.73833 5.39625 6.45805 4.49904C7.52811 3.19057 9.24335 2.40582 10.9404 2.40582H11.0149C12.7484 2.40582 14.5191 3.22834 15.5709 4.59304C16.2534 5.47179 16.5665 6.3497 16.5665 7.71441V8.06943ZM8.53862 17.4565C8.53862 17.0369 8.92374 16.8447 9.27987 16.7624C9.69647 16.6743 12.235 16.6743 12.6515 16.7624C13.0077 16.8447 13.3928 17.0369 13.3928 17.4565C13.3721 17.856 13.1377 18.2102 12.8139 18.4351C12.394 18.7625 11.9012 18.9698 11.386 19.0445C11.1011 19.0814 10.8212 19.0822 10.5462 19.0445C10.0302 18.9698 9.53745 18.7625 9.11837 18.4343C8.79371 18.2102 8.55932 17.856 8.53862 17.4565Z" fill="#42A8C3"/>
</svg>
