<svg width="20" height="21" viewBox="0 0 20 21" fill="none" xmlns="http://www.w3.org/2000/svg">
<path fill-rule="evenodd" clip-rule="evenodd" d="M1.66667 9.63076C1.66667 5.64054 4.86696 2.40582 8.8147 2.40582C10.7105 2.40582 12.5286 3.16702 13.8691 4.52196C15.2096 5.8769 15.9627 7.71459 15.9627 9.63076C15.9627 13.621 12.7625 16.8557 8.8147 16.8557C4.86696 16.8557 1.66667 13.621 1.66667 9.63076ZM15.8445 15.4511L17.9734 17.1695H18.0103C18.441 17.6048 18.441 18.3107 18.0103 18.746C17.5796 19.1813 16.8813 19.1813 16.4506 18.746L14.6839 16.7212C14.5169 16.553 14.423 16.3245 14.423 16.0861C14.423 15.8478 14.5169 15.6193 14.6839 15.4511C15.006 15.1311 15.5224 15.1311 15.8445 15.4511Z" fill="#42A8C3"/>
</svg>
