<svg width="33" height="33" viewBox="0 0 33 33" fill="none" xmlns="http://www.w3.org/2000/svg">
<path d="M12.7188 30.25L12.1688 25.85C11.8709 25.7354 11.5899 25.5979 11.3259 25.4375C11.0619 25.2771 10.8043 25.1052 10.5532 24.9219L6.46252 26.6406L2.68127 20.1094L6.2219 17.4281C6.19898 17.2677 6.18752 17.1128 6.18752 16.9634V16.0366C6.18752 15.8872 6.19898 15.7323 6.2219 15.5719L2.68127 12.8906L6.46252 6.35938L10.5532 8.07812C10.8052 7.89479 11.0688 7.72292 11.3438 7.5625C11.6188 7.40208 11.8938 7.26458 12.1688 7.15L12.7188 2.75H20.2813L20.8313 7.15C21.1292 7.26458 21.4101 7.40208 21.6741 7.5625C21.9381 7.72292 22.1957 7.89479 22.4469 8.07812L26.5375 6.35938L30.3188 12.8906L26.7781 15.5719C26.8011 15.7323 26.8125 15.8872 26.8125 16.0366V16.9634C26.8125 17.1128 26.7896 17.2677 26.7438 17.4281L30.2844 20.1094L26.5031 26.6406L22.4469 24.9219C22.1948 25.1052 21.9313 25.2771 21.6563 25.4375C21.3813 25.5979 21.1063 25.7354 20.8313 25.85L20.2813 30.25H12.7188ZM16.5688 21.3125C17.8979 21.3125 19.0323 20.8427 19.9719 19.9031C20.9115 18.9635 21.3813 17.8292 21.3813 16.5C21.3813 15.1708 20.9115 14.0365 19.9719 13.0969C19.0323 12.1573 17.8979 11.6875 16.5688 11.6875C15.2167 11.6875 14.0764 12.1573 13.1478 13.0969C12.2192 14.0365 11.7554 15.1708 11.7563 16.5C11.7563 17.8292 12.2201 18.9635 13.1478 19.9031C14.0754 20.8427 15.2158 21.3125 16.5688 21.3125Z" fill="#309CFF"/>
</svg>
